<?xml version="1.0" encoding="utf-8"?>
<!-- Generator: Adobe Illustrator 27.0.0, SVG Export Plug-In . SVG Version: 6.00 Build 0)  -->
<svg version="1.1" xmlns="http://www.w3.org/2000/svg" xmlns:xlink="http://www.w3.org/1999/xlink" x="0px" y="0px"
	 viewBox="0 0 1366 768" style="enable-background:new 0 0 1366 768;" xml:space="preserve">
<style type="text/css">
	.st0{fill:url(#SVGID_1_);}
	.st1{fill:url(#SVGID_00000073713980438480602030000005393554576091590308_);}
	.st2{fill:url(#SVGID_00000137816923179209593940000010799019662556675472_);}
	.st3{fill:url(#SVGID_00000059996841573898804990000007656685810800871574_);}
	.st4{fill:#FFFFFF;}
</style>
<g id="Capa_1">
	<g>
		<linearGradient id="SVGID_1_" gradientUnits="userSpaceOnUse" x1="-2333.9995" y1="312.9996" x2="-1844.9996" y2="312.9996">
			<stop  offset="0" style="stop-color:#0871B8"/>
			<stop  offset="0.25" style="stop-color:#0182B1"/>
			<stop  offset="0.5" style="stop-color:#1295A0"/>
			<stop  offset="0.75" style="stop-color:#27A389"/>
			<stop  offset="1" style="stop-color:#34AE72"/>
		</linearGradient>
		<polygon class="st0" points="-2334,313 -2121,435.98 -2121,370 -1845,370 -1845,256 -2121,256 -2121,190.02 		"/>
	</g>
</g>
<g id="Capa_2">
	
		<linearGradient id="SVGID_00000052789887062113803780000007035371220417548178_" gradientUnits="userSpaceOnUse" x1="-1008" y1="349.5" x2="-465" y2="349.5">
		<stop  offset="0" style="stop-color:#0871B8"/>
		<stop  offset="0.25" style="stop-color:#0182B1"/>
		<stop  offset="0.5" style="stop-color:#1295A0"/>
		<stop  offset="0.75" style="stop-color:#27A389"/>
		<stop  offset="1" style="stop-color:#34AE72"/>
	</linearGradient>
	<path style="fill:url(#SVGID_00000052789887062113803780000007035371220417548178_);" d="M-736.5,78
		C-886.45,78-1008,199.55-1008,349.5S-886.45,621-736.5,621S-465,499.45-465,349.5S-586.55,78-736.5,78z M-736,583
		c-128.68,0-233-104.32-233-233s104.32-233,233-233s233,104.32,233,233S-607.32,583-736,583z"/>
	<g>
		
			<linearGradient id="SVGID_00000022557060736095853330000011052155820153238181_" gradientUnits="userSpaceOnUse" x1="-955.0001" y1="349.9999" x2="-529" y2="349.9999">
			<stop  offset="0" style="stop-color:#0871B8"/>
			<stop  offset="0.25" style="stop-color:#0182B1"/>
			<stop  offset="0.5" style="stop-color:#1295A0"/>
			<stop  offset="0.75" style="stop-color:#27A389"/>
			<stop  offset="1" style="stop-color:#34AE72"/>
		</linearGradient>
		<polygon style="fill:url(#SVGID_00000022557060736095853330000011052155820153238181_);" points="-955,350 -769.44,472.98 
			-769.44,407 -529,407 -529,293 -769.44,293 -769.44,227.02 		"/>
	</g>
</g>
<g id="Capa_3">
	
		<linearGradient id="SVGID_00000052071184470829029310000000927302853802652348_" gradientUnits="userSpaceOnUse" x1="412.5" y1="350" x2="955.5" y2="350">
		<stop  offset="0" style="stop-color:#0871B8"/>
		<stop  offset="0.25" style="stop-color:#0182B1"/>
		<stop  offset="0.5" style="stop-color:#1295A0"/>
		<stop  offset="0.75" style="stop-color:#27A389"/>
		<stop  offset="1" style="stop-color:#34AE72"/>
	</linearGradient>
	<path style="fill:url(#SVGID_00000052071184470829029310000000927302853802652348_);" d="M684,78.5
		c-149.95,0-271.5,121.55-271.5,271.5S534.05,621.5,684,621.5S955.5,499.95,955.5,350S833.95,78.5,684,78.5z"/>
	<g>
		<polygon class="st4" points="891.5,293.5 651.06,293.5 651.06,227.52 465.5,350.5 651.06,473.48 651.06,407.5 891.5,407.5 		"/>
	</g>
</g>
</svg>
