<?xml version="1.0" encoding="utf-8"?>
<!-- Generator: Adobe Illustrator 27.0.0, SVG Export Plug-In . SVG Version: 6.00 Build 0)  -->
<svg version="1.1" xmlns="http://www.w3.org/2000/svg" xmlns:xlink="http://www.w3.org/1999/xlink" x="0px" y="0px"
	 viewBox="0 0 1366 768" style="enable-background:new 0 0 1366 768;" xml:space="preserve">
<style type="text/css">
	.st0{fill:url(#SVGID_1_);}
	.st1{display:none;fill:url(#SVGID_00000123415601961726758730000018088846008610686341_);}
	.st2{display:none;fill:url(#SVGID_00000018930698990887660710000002244913738286169755_);}
	.st3{display:none;fill:url(#SVGID_00000152944591089676561030000002522653483648121988_);}
	.st4{display:none;}
</style>
<g id="Fons">
</g>
<g id="Text">
	<linearGradient id="SVGID_1_" gradientUnits="userSpaceOnUse" x1="200" y1="356.5" x2="400" y2="356.5">
		<stop  offset="0" style="stop-color:#0071BC"/>
		<stop  offset="0.6135" style="stop-color:#169D8C"/>
		<stop  offset="1" style="stop-color:#22B573"/>
	</linearGradient>
	<path class="st0" d="M340,393c-1.15,0-2.3,0.03-3.44,0.1C373.7,378.51,400,342.33,400,300c0-55.23-44.77-100-100-100
		s-100,44.77-100,100c0,55.23,44.77,100,100,100c4.65,0,9.22-0.32,13.7-0.93C293.74,408.8,280,429.3,280,453c0,33.14,26.86,60,60,60
		s60-26.86,60-60S373.14,393,340,393z M300,360c-33.14,0-60-26.86-60-60s26.86-60,60-60s60,26.86,60,60S333.14,360,300,360z
		 M340,483c-16.57,0-30-13.43-30-30s13.43-30,30-30s30,13.43,30,30S356.57,483,340,483z"/>
	
		<linearGradient id="SVGID_00000007396871306553002780000007647974037431332237_" gradientUnits="userSpaceOnUse" x1="409.7899" y1="300" x2="580" y2="300">
		<stop  offset="0" style="stop-color:#0071BC"/>
		<stop  offset="0.6135" style="stop-color:#169D8C"/>
		<stop  offset="1" style="stop-color:#22B573"/>
	</linearGradient>
	<path style="display:none;fill:url(#SVGID_00000007396871306553002780000007647974037431332237_);" d="M510,360
		c-26.12,0-48.33-16.7-56.57-40H497c7.18,0,13-5.82,13-13v-14c0-7.18-5.82-13-13-13h-43.57c8.24-23.3,30.45-40,56.57-40
		c16.32,0,31.12,6.53,41.93,17.1L580,228.36c-18.67-18.14-43.72-28.32-69.78-28.36c-55.01-0.09-100.34,44.98-100.43,99.84
		c-0.09,54.85,45.09,100.07,100.1,100.16c26.01,0.04,51.06-10.02,69.78-28.04l-27.94-28.87C540.94,353.55,526.23,360,510,360z"/>
	
		<linearGradient id="SVGID_00000023264746145867137290000000214906860824956337_" gradientUnits="userSpaceOnUse" x1="589.895" y1="300" x2="760.1051" y2="300">
		<stop  offset="0" style="stop-color:#0071BC"/>
		<stop  offset="0.6135" style="stop-color:#169D8C"/>
		<stop  offset="1" style="stop-color:#22B573"/>
	</linearGradient>
	<path style="display:none;fill:url(#SVGID_00000023264746145867137290000000214906860824956337_);" d="M690.11,360
		c-26.12,0-48.33-16.7-56.57-40h43.57c7.18,0,13-5.82,13-13v-14c0-7.18-5.82-13-13-13h-43.57c8.24-23.3,30.45-40,56.57-40
		c16.32,0,31.12,6.53,41.93,17.1l28.07-28.74c-18.67-18.14-43.72-28.32-69.78-28.36c-55.01-0.09-100.34,44.98-100.43,99.84
		C589.81,354.69,634.99,399.91,690,400c26.01,0.04,51.06-10.02,69.78-28.04l-27.94-28.87C721.04,353.55,706.33,360,690.11,360z"/>
	
		<linearGradient id="SVGID_00000044163860126282509390000004582208564356300417_" gradientUnits="userSpaceOnUse" x1="769.7899" y1="300" x2="940" y2="300">
		<stop  offset="0" style="stop-color:#0071BC"/>
		<stop  offset="0.6135" style="stop-color:#169D8C"/>
		<stop  offset="1" style="stop-color:#22B573"/>
	</linearGradient>
	<path style="display:none;fill:url(#SVGID_00000044163860126282509390000004582208564356300417_);" d="M869,360
		c-33.14,0-60-26.86-60-60s26.86-60,60-60c16.58,0,31.59,6.73,42.45,17.6L940,228.36c-18.67-18.14-43.72-28.32-69.78-28.36
		c-55.01-0.09-100.34,44.98-100.43,99.84c-0.09,54.85,45.09,100.07,100.1,100.16c26.01,0.04,51.06-10.02,69.78-28.04l-28.42-29.37
		C900.41,353.35,885.48,360,869,360z"/>
</g>
<g id="Gies" class="st4">
</g>
</svg>
