<?xml version="1.0" encoding="utf-8"?>
<!-- Generator: Adobe Illustrator 27.0.0, SVG Export Plug-In . SVG Version: 6.00 Build 0)  -->
<svg version="1.1" id="Capa_1" xmlns="http://www.w3.org/2000/svg" xmlns:xlink="http://www.w3.org/1999/xlink" x="0px" y="0px"
	 viewBox="0 0 1366 768" style="enable-background:new 0 0 1366 768;" xml:space="preserve">
<style type="text/css">
	.st0{fill:url(#SVGID_1_);}
	.st1{fill:url(#SVGID_00000157998483209201899430000012713966141410349972_);}
	.st2{fill:url(#SVGID_00000151503199320115724060000013523176087814808717_);}
	.st3{fill:url(#SVGID_00000034087197144404039920000014357426448014641030_);}
	.st4{display:none;}
</style>
<g id="Fons">
</g>
<g id="Text">
	
		<linearGradient id="SVGID_1_" gradientUnits="userSpaceOnUse" x1="8" y1="398.1347" x2="372.8649" y2="398.1347" gradientTransform="matrix(1 0 0 -1 0 770)">
		<stop  offset="0" style="stop-color:#0071BC"/>
		<stop  offset="0.6135" style="stop-color:#169D8C"/>
		<stop  offset="1" style="stop-color:#22B573"/>
	</linearGradient>
	<path class="st0" d="M263.4,438.5c-2.1,0-4.2,0.1-6.3,0.2C324.9,412,372.9,346,372.9,268.8c0-100.8-81.7-182.4-182.4-182.4
		S8,168,8,268.8s81.7,182.4,182.4,182.4c8.5,0,16.8-0.6,25-1.7c-36.4,17.8-61.5,55.1-61.5,98.4c0,60.5,49,109.5,109.5,109.5
		s109.5-49,109.5-109.5S323.9,438.5,263.4,438.5z M190.4,378.3C130,378.3,81,329.2,81,268.8s49-109.5,109.5-109.5
		s109.5,49,109.5,109.5S250.9,378.3,190.4,378.3z M263.4,602.6c-30.2,0-54.7-24.5-54.7-54.7s24.5-54.7,54.7-54.7
		s54.7,24.5,54.7,54.7S293.6,602.6,263.4,602.6z"/>
	
		<linearGradient id="SVGID_00000124137998748123363890000015007378428467687352_" gradientUnits="userSpaceOnUse" x1="390.7248" y1="501.209" x2="701.2432" y2="501.209" gradientTransform="matrix(1 0 0 -1 0 770)">
		<stop  offset="0" style="stop-color:#0071BC"/>
		<stop  offset="0.6135" style="stop-color:#169D8C"/>
		<stop  offset="1" style="stop-color:#22B573"/>
	</linearGradient>
	<path style="fill:url(#SVGID_00000124137998748123363890000015007378428467687352_);" d="M573.5,378.3c-47.7,0-88.2-30.5-103.2-73
		h79.5c13.1,0,23.7-10.6,23.7-23.7V256c0-13.1-10.6-23.7-23.7-23.7h-79.5c15-42.5,55.6-73,103.2-73c29.8,0,56.8,11.9,76.5,31.2
		l51.2-52.4c-34.1-33.1-79.8-51.7-127.3-51.7c-100.4-0.2-183.1,82.1-183.2,182.1c-0.2,100.1,82.3,182.6,182.6,182.7
		c47.5,0.1,93.1-18.3,127.3-51.2l-51-52.7C630,366.5,603.1,378.3,573.5,378.3z"/>
	
		<linearGradient id="SVGID_00000113342898149289848770000004011678648620437671_" gradientUnits="userSpaceOnUse" x1="719.3038" y1="501.209" x2="1029.8223" y2="501.209" gradientTransform="matrix(1 0 0 -1 0 770)">
		<stop  offset="0" style="stop-color:#0071BC"/>
		<stop  offset="0.6135" style="stop-color:#169D8C"/>
		<stop  offset="1" style="stop-color:#22B573"/>
	</linearGradient>
	<path style="fill:url(#SVGID_00000113342898149289848770000004011678648620437671_);" d="M902.1,378.3c-47.7,0-88.2-30.5-103.2-73
		h79.5c13.1,0,23.7-10.6,23.7-23.7V256c0-13.1-10.6-23.7-23.7-23.7h-79.5c15-42.5,55.6-73,103.2-73c29.8,0,56.8,11.9,76.5,31.2
		l51.2-52.4c-34.1-33.1-79.8-51.7-127.3-51.7c-100.4-0.2-183.1,82.1-183.2,182.1c-0.2,100.1,82.3,182.6,182.6,182.7
		c47.5,0.1,93.1-18.3,127.3-51.2l-51-52.7C958.5,366.5,931.7,378.3,902.1,378.3z"/>
	
		<linearGradient id="SVGID_00000091731173631416982960000002285324464665068425_" gradientUnits="userSpaceOnUse" x1="1047.4814" y1="501.209" x2="1358" y2="501.209" gradientTransform="matrix(1 0 0 -1 0 770)">
		<stop  offset="0" style="stop-color:#0071BC"/>
		<stop  offset="0.6135" style="stop-color:#169D8C"/>
		<stop  offset="1" style="stop-color:#22B573"/>
	</linearGradient>
	<path style="fill:url(#SVGID_00000091731173631416982960000002285324464665068425_);" d="M1228.5,378.3
		c-60.5,0-109.5-49-109.5-109.5s49-109.5,109.5-109.5c30.2,0,57.6,12.3,77.4,32.1l52.1-53.3c-34.1-33.1-79.8-51.7-127.3-51.7
		c-100.4-0.2-183.1,82.1-183.2,182.1c-0.2,100.1,82.3,182.6,182.6,182.7c47.5,0.1,93.2-18.3,127.3-51.2l-51.8-53.6
		C1285.8,366.1,1258.5,378.3,1228.5,378.3z"/>
</g>
<g id="Gies" class="st4">
</g>
</svg>
