<?xml version="1.0" encoding="utf-8"?>
<!-- Generator: Adobe Illustrator 27.0.0, SVG Export Plug-In . SVG Version: 6.00 Build 0)  -->
<svg version="1.1" xmlns="http://www.w3.org/2000/svg" xmlns:xlink="http://www.w3.org/1999/xlink" x="0px" y="0px"
	 viewBox="0 0 768 1366" style="enable-background:new 0 0 768 1366;" xml:space="preserve">
<style type="text/css">
	.st0{fill:none;}
	.st1{fill:url(#SVGID_1_);}
	.st2{fill:url(#SVGID_00000017487766244918468860000012751740457897590672_);}
</style>
<g id="Capa_1">
</g>
<g id="Capa_2">
	<path class="st0" d="M465.96,348c-4.89-3.76-10.11-7.12-15.62-10c-3.66-1.92-7.44-3.63-11.34-5.13
		c14.58-11.39,23.96-29.14,23.96-49.08c0-34.37-27.87-62.25-62.25-62.25s-62.25,27.88-62.25,62.25c0,19.94,9.37,37.69,23.95,49.08
		c-3.89,1.5-7.67,3.21-11.34,5.13c-5.51,2.88-10.73,6.24-15.62,10c-25.48,19.59-41.91,50.37-41.91,85h19.25
		c0.08-41.41,28.88-76.04,67.51-85h39.52c38.64,8.96,67.45,43.6,67.52,85h20.54C507.88,398.37,491.45,367.59,465.96,348z
		 M405.14,325.92c-1.46,0.15-2.94,0.23-4.43,0.23c-1.5,0-2.98-0.08-4.44-0.23c-21.3-2.22-37.92-20.23-37.92-42.13
		c0-23.39,18.97-42.35,42.36-42.35c23.39,0,42.35,18.96,42.35,42.35C443.06,305.69,426.45,323.7,405.14,325.92z"/>
	<path class="st0" d="M684,383.58v492.84c0,19.65-15.93,35.58-35.58,35.58H155.58c-19.65,0-35.58-15.93-35.58-35.58V383.58
		c0-19.65,15.93-35.58,35.58-35.58h79.86c5.17,86.62,77.03,155.27,164.95,155.27c87.91,0,159.78-68.65,164.94-155.27h83.09
		C668.07,348,684,363.93,684,383.58z"/>
	<g>
		<linearGradient id="SVGID_1_" gradientUnits="userSpaceOnUse" x1="358.3519" y1="283.7937" x2="443.0626" y2="283.7937">
			<stop  offset="0" style="stop-color:#0071BC"/>
			<stop  offset="0.6135" style="stop-color:#169D8C"/>
			<stop  offset="1" style="stop-color:#22B573"/>
		</linearGradient>
		<path class="st1" d="M396.27,325.92c1.46,0.15,2.94,0.23,4.43,0.23c1.5,0,2.98-0.08,4.43-0.23c21.31-2.21,37.92-20.23,37.92-42.12
			c0-23.39-18.96-42.36-42.36-42.36c-23.39,0-42.36,18.96-42.36,42.36C358.35,305.69,374.97,323.7,396.27,325.92z"/>
		
			<linearGradient id="SVGID_00000015317593187879656600000002536466188255907497_" gradientUnits="userSpaceOnUse" x1="110.23" y1="547.385" x2="694.23" y2="547.385">
			<stop  offset="0" style="stop-color:#0071BC"/>
			<stop  offset="0.6135" style="stop-color:#169D8C"/>
			<stop  offset="1" style="stop-color:#22B573"/>
		</linearGradient>
		<path style="fill:url(#SVGID_00000015317593187879656600000002536466188255907497_);" d="M658.64,338h-93
			c-0.02-91.26-74-165.23-165.25-165.23c-91.26,0-165.24,73.97-165.25,165.23h-89.33c-19.65,0-35.58,15.93-35.58,35.58v512.84
			c0,19.65,15.93,35.58,35.58,35.58h512.83c19.66,0,35.59-15.93,35.59-35.58V373.58C694.23,353.93,678.3,338,658.64,338z
			 M335.45,348c4.89-3.76,10.11-7.12,15.62-10c3.67-1.92,7.45-3.63,11.34-5.13c-14.58-11.39-23.95-29.14-23.95-49.08
			c0-34.37,27.87-62.25,62.25-62.25s62.25,27.88,62.25,62.25c0,19.94-9.38,37.69-23.96,49.08c3.9,1.5,7.68,3.21,11.34,5.13
			c5.51,2.88,10.73,6.24,15.62,10c25.49,19.59,41.92,50.37,41.92,85h-20.54c-0.07-41.4-28.88-76.04-67.52-85H380.3
			c-38.63,8.96-67.43,43.59-67.51,85h-19.25C293.54,398.37,309.97,367.59,335.45,348z M684,876.42c0,19.65-15.93,35.58-35.58,35.58
			H155.58c-19.65,0-35.58-15.93-35.58-35.58V383.58c0-19.65,15.93-35.58,35.58-35.58h79.86c5.17,86.62,77.03,155.27,164.95,155.27
			c87.91,0,159.78-68.65,164.94-155.27h83.09c19.65,0,35.58,15.93,35.58,35.58V876.42z"/>
	</g>
</g>
</svg>
